<?xml version="1.0" encoding="UTF-8" standalone="no"?>
<!DOCTYPE svg PUBLIC "-//W3C//DTD SVG 1.1//EN"
 "http://www.w3.org/Graphics/SVG/1.1/DTD/svg11.dtd">
<!-- Generated by graphviz version 2.36.0 (20140111.2315)
 -->
<!-- Title: ecomap Pages: 1 -->
<svg width="733pt" height="980pt"
 viewBox="0.00 0.00 733.00 980.00" xmlns="http://www.w3.org/2000/svg" xmlns:xlink="http://www.w3.org/1999/xlink">
<g id="graph0" class="graph" transform="scale(1 1) rotate(0) translate(4 976)">
<title>ecomap</title>
<polygon fill="white" stroke="none" points="-4,4 -4,-976 729,-976 729,4 -4,4"/>
<!-- RealGDP -->
<g id="node1" class="node"><title>RealGDP</title>
<ellipse fill="gold" stroke="gold" cx="194" cy="-18" rx="51.4931" ry="18"/>
<text text-anchor="middle" x="194" y="-14.3" font-family="Times,serif" font-size="14.00">RealGDP</text>
</g>
<!-- Investment -->
<g id="node2" class="node"><title>Investment</title>
<ellipse fill="blue" stroke="blue" cx="430" cy="-666" rx="63.5411" ry="18"/>
<text text-anchor="middle" x="430" y="-662.3" font-family="Times,serif" font-size="14.00" fill="white">Investment</text>
</g>
<!-- Employment -->
<g id="node6" class="node"><title>Employment</title>
<ellipse fill="indigo" stroke="indigo" cx="430" cy="-594" rx="69.3156" ry="18"/>
<text text-anchor="middle" x="430" y="-590.3" font-family="Times,serif" font-size="14.00" fill="white">Employment</text>
</g>
<!-- Investment&#45;&gt;Employment -->
<g id="edge13" class="edge"><title>Investment&#45;&gt;Employment</title>
<path fill="none" stroke="green" d="M430,-647.697C430,-639.983 430,-630.712 430,-622.112"/>
<polygon fill="green" stroke="green" points="433.5,-622.104 430,-612.104 426.5,-622.104 433.5,-622.104"/>
</g>
<!-- NominalGDP -->
<g id="node10" class="node"><title>NominalGDP</title>
<ellipse fill="none" stroke="black" cx="389" cy="-90" rx="71.2405" ry="18"/>
<text text-anchor="middle" x="389" y="-86.3" font-family="Times,serif" font-size="14.00">NominalGDP</text>
</g>
<!-- Investment&#45;&gt;NominalGDP -->
<g id="edge1" class="edge"><title>Investment&#45;&gt;NominalGDP</title>
<path fill="none" stroke="green" d="M470.556,-651.966C490.604,-643.559 513.539,-630.648 528,-612 613.611,-501.605 604,-446.701 604,-307 604,-307 604,-307 604,-233 604,-159.754 516.043,-122.114 452.646,-104.496"/>
<polygon fill="green" stroke="green" points="453.264,-101.039 442.699,-101.838 451.456,-107.801 453.264,-101.039"/>
</g>
<!-- Supply -->
<g id="node14" class="node"><title>Supply</title>
<ellipse fill="none" stroke="black" cx="270" cy="-306" rx="42.3701" ry="18"/>
<text text-anchor="middle" x="270" y="-302.3" font-family="Times,serif" font-size="14.00">Supply</text>
</g>
<!-- Investment&#45;&gt;Supply -->
<g id="edge14" class="edge"><title>Investment&#45;&gt;Supply</title>
<path fill="none" stroke="green" d="M399.475,-650.043C383.337,-640.888 364.192,-627.88 351,-612 281.766,-528.663 271.161,-392.077 269.919,-334.239"/>
<polygon fill="green" stroke="green" points="273.417,-334.025 269.783,-324.073 266.417,-334.119 273.417,-334.025"/>
</g>
<!-- Consume -->
<g id="node3" class="node"><title>Consume</title>
<ellipse fill="blue" stroke="blue" cx="352" cy="-450" rx="53.4184" ry="18"/>
<text text-anchor="middle" x="352" y="-446.3" font-family="Times,serif" font-size="14.00" fill="white">Consume</text>
</g>
<!-- Consume&#45;&gt;NominalGDP -->
<g id="edge2" class="edge"><title>Consume&#45;&gt;NominalGDP</title>
<path fill="none" stroke="green" d="M353.785,-431.733C359.731,-374.194 378.907,-188.658 386.173,-118.351"/>
<polygon fill="green" stroke="green" points="389.687,-118.401 387.233,-108.094 382.724,-117.681 389.687,-118.401"/>
</g>
<!-- Utilized -->
<g id="node15" class="node"><title>Utilized</title>
<ellipse fill="none" stroke="black" cx="453" cy="-378" rx="46.1964" ry="18"/>
<text text-anchor="middle" x="453" y="-374.3" font-family="Times,serif" font-size="14.00">Utilized</text>
</g>
<!-- Consume&#45;&gt;Utilized -->
<g id="edge15" class="edge"><title>Consume&#45;&gt;Utilized</title>
<path fill="none" stroke="green" d="M374.415,-433.465C388.734,-423.541 407.469,-410.556 423.054,-399.755"/>
<polygon fill="green" stroke="green" points="425.115,-402.584 431.341,-394.011 421.128,-396.831 425.115,-402.584"/>
</g>
<!-- Price -->
<g id="node16" class="node"><title>Price</title>
<ellipse fill="none" stroke="black" cx="99" cy="-234" rx="35.1455" ry="18"/>
<text text-anchor="middle" x="99" y="-230.3" font-family="Times,serif" font-size="14.00">Price</text>
</g>
<!-- Consume&#45;&gt;Price -->
<g id="edge16" class="edge"><title>Consume&#45;&gt;Price</title>
<path fill="none" stroke="green" d="M312.814,-437.622C288.239,-428.462 257.022,-414.14 233,-396 180.641,-356.462 132.864,-295.469 110.895,-261.019"/>
<polygon fill="green" stroke="green" points="113.607,-258.746 105.4,-252.046 107.638,-262.402 113.607,-258.746"/>
</g>
<!-- Imports -->
<g id="node17" class="node"><title>Imports</title>
<ellipse fill="none" stroke="black" cx="200" cy="-234" rx="48.1437" ry="18"/>
<text text-anchor="middle" x="200" y="-230.3" font-family="Times,serif" font-size="14.00">Imports</text>
</g>
<!-- Consume&#45;&gt;Imports -->
<g id="edge17" class="edge"><title>Consume&#45;&gt;Imports</title>
<path fill="none" stroke="green" d="M328.4,-433.705C298.087,-412.748 246.156,-372.167 219,-324 208.298,-305.017 203.612,-280.653 201.567,-262.218"/>
<polygon fill="green" stroke="green" points="205.041,-261.773 200.642,-252.134 198.07,-262.412 205.041,-261.773"/>
</g>
<!-- Exports -->
<g id="node18" class="node"><title>Exports</title>
<ellipse fill="none" stroke="black" cx="314" cy="-234" rx="47.169" ry="18"/>
<text text-anchor="middle" x="314" y="-230.3" font-family="Times,serif" font-size="14.00">Exports</text>
</g>
<!-- Consume&#45;&gt;Exports -->
<g id="edge18" class="edge"><title>Consume&#45;&gt;Exports</title>
<path fill="none" stroke="red" d="M348.955,-431.849C342.367,-394.753 326.751,-306.81 318.813,-262.103"/>
<polygon fill="red" stroke="red" points="322.254,-261.466 317.06,-252.232 315.362,-262.69 322.254,-261.466"/>
</g>
<!-- GovExp -->
<g id="node4" class="node"><title>GovExp</title>
<ellipse fill="blue" stroke="blue" cx="679" cy="-594" rx="46.1964" ry="18"/>
<text text-anchor="middle" x="679" y="-590.3" font-family="Times,serif" font-size="14.00" fill="white">GovExp</text>
</g>
<!-- GovExp&#45;&gt;NominalGDP -->
<g id="edge3" class="edge"><title>GovExp&#45;&gt;NominalGDP</title>
<path fill="none" stroke="green" d="M671.512,-575.887C660.701,-549.577 642,-497.366 642,-451 642,-451 642,-451 642,-233 642,-192.031 647.485,-172.444 618,-144 595.893,-122.674 520.597,-108.102 462.313,-99.7153"/>
<polygon fill="green" stroke="green" points="462.771,-96.2454 452.381,-98.3217 461.798,-103.177 462.771,-96.2454"/>
</g>
<!-- NetExports -->
<g id="node5" class="node"><title>NetExports</title>
<ellipse fill="blue" stroke="blue" cx="296" cy="-162" rx="64.4914" ry="18"/>
<text text-anchor="middle" x="296" y="-158.3" font-family="Times,serif" font-size="14.00" fill="white">NetExports</text>
</g>
<!-- NetExports&#45;&gt;NominalGDP -->
<g id="edge4" class="edge"><title>NetExports&#45;&gt;NominalGDP</title>
<path fill="none" stroke="green" d="M317.57,-144.765C329.923,-135.467 345.609,-123.66 359.133,-113.481"/>
<polygon fill="green" stroke="green" points="361.34,-116.2 367.225,-107.39 357.13,-110.607 361.34,-116.2"/>
</g>
<!-- Employment&#45;&gt;Consume -->
<g id="edge12" class="edge"><title>Employment&#45;&gt;Consume</title>
<path fill="none" stroke="green" d="M405.939,-577.045C393.662,-567.674 379.552,-554.777 371,-540 360.085,-521.138 355.416,-496.766 353.431,-478.296"/>
<polygon fill="green" stroke="green" points="356.905,-477.846 352.546,-468.189 349.932,-478.457 356.905,-477.846"/>
</g>
<!-- Wages -->
<g id="node13" class="node"><title>Wages</title>
<ellipse fill="none" stroke="black" cx="421" cy="-522" rx="40.4202" ry="18"/>
<text text-anchor="middle" x="421" y="-518.3" font-family="Times,serif" font-size="14.00">Wages</text>
</g>
<!-- Employment&#45;&gt;Wages -->
<g id="edge11" class="edge"><title>Employment&#45;&gt;Wages</title>
<path fill="none" stroke="green" d="M427.775,-575.697C426.783,-567.983 425.592,-558.712 424.486,-550.112"/>
<polygon fill="green" stroke="green" points="427.946,-549.576 423.199,-540.104 421.003,-550.469 427.946,-549.576"/>
</g>
<!-- Money -->
<g id="node7" class="node"><title>Money</title>
<ellipse fill="indigo" stroke="indigo" cx="324" cy="-810" rx="42.3701" ry="18"/>
<text text-anchor="middle" x="324" y="-806.3" font-family="Times,serif" font-size="14.00" fill="white">Money</text>
</g>
<!-- Interest -->
<g id="node9" class="node"><title>Interest</title>
<ellipse fill="cyan" stroke="cyan" cx="306" cy="-738" rx="48.1437" ry="18"/>
<text text-anchor="middle" x="306" y="-734.3" font-family="Times,serif" font-size="14.00">Interest</text>
</g>
<!-- Money&#45;&gt;Interest -->
<g id="edge42" class="edge"><title>Money&#45;&gt;Interest</title>
<path fill="none" stroke="red" d="M319.643,-792.055C317.639,-784.261 315.211,-774.822 312.963,-766.079"/>
<polygon fill="red" stroke="red" points="316.322,-765.089 310.442,-756.275 309.543,-766.832 316.322,-765.089"/>
</g>
<!-- CPI -->
<g id="node8" class="node"><title>CPI</title>
<ellipse fill="cyan" stroke="cyan" cx="62" cy="-954" rx="28.3955" ry="18"/>
<text text-anchor="middle" x="62" y="-950.3" font-family="Times,serif" font-size="14.00">CPI</text>
</g>
<!-- CPI&#45;&gt;RealGDP -->
<g id="edge5" class="edge"><title>CPI&#45;&gt;RealGDP</title>
<path fill="none" stroke="red" d="M50.0458,-937.367C32.0293,-912.199 0,-860.496 0,-811 0,-811 0,-811 0,-161 0,-89.7813 86.1841,-50.4167 143.666,-32.0822"/>
<polygon fill="red" stroke="red" points="144.802,-35.3945 153.331,-29.1092 142.744,-28.7038 144.802,-35.3945"/>
</g>
<!-- Savings -->
<g id="node11" class="node"><title>Savings</title>
<ellipse fill="none" stroke="black" cx="254" cy="-882" rx="46.1964" ry="18"/>
<text text-anchor="middle" x="254" y="-878.3" font-family="Times,serif" font-size="14.00">Savings</text>
</g>
<!-- CPI&#45;&gt;Savings -->
<g id="edge6" class="edge"><title>CPI&#45;&gt;Savings</title>
<path fill="none" stroke="red" d="M85.9287,-944.276C117.437,-932.789 173.355,-912.402 211.989,-898.317"/>
<polygon fill="red" stroke="red" points="213.217,-901.594 221.413,-894.881 210.819,-895.018 213.217,-901.594"/>
</g>
<!-- RealInterest -->
<g id="node12" class="node"><title>RealInterest</title>
<ellipse fill="none" stroke="black" cx="135" cy="-666" rx="68.3417" ry="18"/>
<text text-anchor="middle" x="135" y="-662.3" font-family="Times,serif" font-size="14.00">RealInterest</text>
</g>
<!-- CPI&#45;&gt;RealInterest -->
<g id="edge7" class="edge"><title>CPI&#45;&gt;RealInterest</title>
<path fill="none" stroke="red" d="M66.3479,-935.966C78.5419,-888.192 113.145,-752.623 128.041,-694.266"/>
<polygon fill="red" stroke="red" points="131.501,-694.861 130.583,-684.306 124.718,-693.13 131.501,-694.861"/>
</g>
<!-- Interest&#45;&gt;Investment -->
<g id="edge9" class="edge"><title>Interest&#45;&gt;Investment</title>
<path fill="none" stroke="red" d="M331.392,-722.666C349.457,-712.468 373.982,-698.623 394.053,-687.292"/>
<polygon fill="red" stroke="red" points="395.935,-690.249 402.923,-682.285 392.494,-684.154 395.935,-690.249"/>
</g>
<!-- Interest&#45;&gt;Consume -->
<g id="edge10" class="edge"><title>Interest&#45;&gt;Consume</title>
<path fill="none" stroke="red" d="M308.74,-719.966C316.424,-672.192 338.229,-536.623 347.615,-478.266"/>
<polygon fill="red" stroke="red" points="351.084,-478.735 349.216,-468.306 344.173,-477.624 351.084,-478.735"/>
</g>
<!-- Interest&#45;&gt;RealInterest -->
<g id="edge8" class="edge"><title>Interest&#45;&gt;RealInterest</title>
<path fill="none" stroke="green" d="M274.636,-724.161C248.013,-713.263 209.494,-697.495 179.653,-685.279"/>
<polygon fill="green" stroke="green" points="180.876,-681.998 170.295,-681.448 178.224,-688.476 180.876,-681.998"/>
</g>
<!-- NominalGDP&#45;&gt;RealGDP -->
<g id="edge38" class="edge"><title>NominalGDP&#45;&gt;RealGDP</title>
<path fill="none" stroke="green" d="M349.539,-74.8345C317.227,-63.2355 271.545,-46.8368 238.047,-34.8118"/>
<polygon fill="green" stroke="green" points="239.102,-31.4719 228.508,-31.3874 236.737,-38.0603 239.102,-31.4719"/>
</g>
<!-- Savings&#45;&gt;Investment -->
<g id="edge29" class="edge"><title>Savings&#45;&gt;Investment</title>
<path fill="none" stroke="red" d="M293.484,-872.529C319.846,-864.975 353.499,-851.38 375,-828 409.79,-790.17 422.696,-729.387 427.394,-694.33"/>
<polygon fill="red" stroke="red" points="430.878,-694.677 428.604,-684.329 423.929,-693.837 430.878,-694.677"/>
</g>
<!-- Savings&#45;&gt;Consume -->
<g id="edge30" class="edge"><title>Savings&#45;&gt;Consume</title>
<path fill="none" stroke="red" d="M253.085,-863.616C251.864,-839.477 249.768,-794.434 249,-756 248.68,-740.003 246.091,-735.733 249,-720 266.232,-626.805 314.4,-524.168 338.256,-477.146"/>
<polygon fill="red" stroke="red" points="341.508,-478.475 342.957,-467.98 335.279,-475.28 341.508,-478.475"/>
</g>
<!-- Savings&#45;&gt;Money -->
<g id="edge28" class="edge"><title>Savings&#45;&gt;Money</title>
<path fill="none" stroke="red" d="M270.235,-864.765C279.247,-855.753 290.615,-844.385 300.574,-834.426"/>
<polygon fill="red" stroke="red" points="303.256,-836.693 307.853,-827.147 298.307,-831.744 303.256,-836.693"/>
</g>
<!-- Savings&#45;&gt;Interest -->
<g id="edge27" class="edge"><title>Savings&#45;&gt;Interest</title>
<path fill="none" stroke="green" d="M255.884,-863.752C258.294,-845.433 263.361,-815.881 273,-792 276.854,-782.451 282.392,-772.691 287.834,-764.191"/>
<polygon fill="green" stroke="green" points="290.759,-766.112 293.395,-755.851 284.935,-762.229 290.759,-766.112"/>
</g>
<!-- RealInterest&#45;&gt;Savings -->
<g id="edge40" class="edge"><title>RealInterest&#45;&gt;Savings</title>
<path fill="none" stroke="green" d="M139.729,-684.024C148.712,-714.588 170.231,-780.046 202,-828 209.231,-838.914 218.908,-849.51 227.954,-858.323"/>
<polygon fill="green" stroke="green" points="225.656,-860.966 235.335,-865.274 230.455,-855.87 225.656,-860.966"/>
</g>
<!-- Wages&#45;&gt;Consume -->
<g id="edge36" class="edge"><title>Wages&#45;&gt;Consume</title>
<path fill="none" stroke="green" d="M405.343,-505.116C396.471,-496.116 385.201,-484.682 375.308,-474.646"/>
<polygon fill="green" stroke="green" points="377.587,-471.972 368.074,-467.307 372.601,-476.886 377.587,-471.972"/>
</g>
<!-- Supply&#45;&gt;Price -->
<g id="edge26" class="edge"><title>Supply&#45;&gt;Price</title>
<path fill="none" stroke="red" d="M240.604,-292.967C211.267,-280.957 166.153,-262.49 134.758,-249.638"/>
<polygon fill="red" stroke="red" points="136.069,-246.392 125.488,-245.843 133.417,-252.871 136.069,-246.392"/>
</g>
<!-- Supply&#45;&gt;Imports -->
<g id="edge25" class="edge"><title>Supply&#45;&gt;Imports</title>
<path fill="none" stroke="red" d="M254.116,-289.116C245.116,-280.116 233.682,-268.682 223.646,-258.646"/>
<polygon fill="red" stroke="red" points="225.853,-255.903 216.307,-251.307 220.903,-260.853 225.853,-255.903"/>
</g>
<!-- Supply&#45;&gt;Exports -->
<g id="edge24" class="edge"><title>Supply&#45;&gt;Exports</title>
<path fill="none" stroke="green" d="M280.427,-288.411C285.666,-280.077 292.127,-269.797 297.979,-260.488"/>
<polygon fill="green" stroke="green" points="300.983,-262.285 303.342,-251.956 295.057,-258.56 300.983,-262.285"/>
</g>
<!-- Utilized&#45;&gt;Investment -->
<g id="edge19" class="edge"><title>Utilized&#45;&gt;Investment</title>
<path fill="none" stroke="green" d="M464.363,-395.53C490.048,-435.122 547.386,-537.619 508,-612 500.458,-626.243 487.184,-637.368 473.7,-645.669"/>
<polygon fill="green" stroke="green" points="471.811,-642.717 464.867,-650.719 475.286,-648.794 471.811,-642.717"/>
</g>
<!-- Utilized&#45;&gt;Supply -->
<g id="edge21" class="edge"><title>Utilized&#45;&gt;Supply</title>
<path fill="none" stroke="green" d="M421.124,-364.807C390.18,-352.971 343.123,-334.971 309.75,-322.205"/>
<polygon fill="green" stroke="green" points="310.886,-318.892 300.296,-318.589 308.385,-325.43 310.886,-318.892"/>
</g>
<!-- Profit -->
<g id="node19" class="node"><title>Profit</title>
<ellipse fill="none" stroke="black" cx="528" cy="-306" rx="36.096" ry="18"/>
<text text-anchor="middle" x="528" y="-302.3" font-family="Times,serif" font-size="14.00">Profit</text>
</g>
<!-- Utilized&#45;&gt;Profit -->
<g id="edge20" class="edge"><title>Utilized&#45;&gt;Profit</title>
<path fill="none" stroke="green" d="M470.019,-361.116C480.132,-351.677 493.112,-339.562 504.226,-329.189"/>
<polygon fill="green" stroke="green" points="506.642,-331.722 511.564,-322.34 501.865,-326.605 506.642,-331.722"/>
</g>
<!-- Price&#45;&gt;Consume -->
<g id="edge23" class="edge"><title>Price&#45;&gt;Consume</title>
<path fill="none" stroke="red" d="M114.601,-250.585C140.304,-281.65 192.823,-352.069 251,-396 269.754,-410.162 292.894,-421.997 312.372,-430.865"/>
<polygon fill="red" stroke="red" points="311.046,-434.106 321.605,-434.977 313.895,-427.711 311.046,-434.106"/>
</g>
<!-- Price&#45;&gt;CPI -->
<g id="edge22" class="edge"><title>Price&#45;&gt;CPI</title>
<path fill="none" stroke="green" d="M86.9484,-251.077C69.1711,-276.435 38,-327.899 38,-377 38,-811 38,-811 38,-811 38,-851.571 47.6428,-897.763 54.704,-926.148"/>
<polygon fill="green" stroke="green" points="51.3835,-927.29 57.2584,-936.107 58.164,-925.551 51.3835,-927.29"/>
</g>
<!-- Imports&#45;&gt;NetExports -->
<g id="edge41" class="edge"><title>Imports&#45;&gt;NetExports</title>
<path fill="none" stroke="red" d="M221.306,-217.465C234.42,-207.902 251.432,-195.498 265.907,-184.943"/>
<polygon fill="red" stroke="red" points="268.07,-187.697 274.088,-178.977 263.946,-182.041 268.07,-187.697"/>
</g>
<!-- Exports&#45;&gt;NetExports -->
<g id="edge39" class="edge"><title>Exports&#45;&gt;NetExports</title>
<path fill="none" stroke="green" d="M309.643,-216.055C307.639,-208.261 305.211,-198.822 302.963,-190.079"/>
<polygon fill="green" stroke="green" points="306.322,-189.089 300.442,-180.275 299.543,-190.832 306.322,-189.089"/>
</g>
<!-- Profit&#45;&gt;Employment -->
<g id="edge37" class="edge"><title>Profit&#45;&gt;Employment</title>
<path fill="none" stroke="green" d="M526.189,-324.207C521.489,-363.979 506.616,-464.635 470,-540 465.239,-549.799 458.543,-559.585 451.988,-568.033"/>
<polygon fill="green" stroke="green" points="449.124,-566.009 445.558,-575.986 454.567,-570.41 449.124,-566.009"/>
</g>
<!-- PrintsMoney -->
<g id="node20" class="node"><title>PrintsMoney</title>
<ellipse fill="none" stroke="black" cx="429" cy="-882" rx="70.2668" ry="18"/>
<text text-anchor="middle" x="429" y="-878.3" font-family="Times,serif" font-size="14.00">PrintsMoney</text>
</g>
<!-- PrintsMoney&#45;&gt;Money -->
<g id="edge31" class="edge"><title>PrintsMoney&#45;&gt;Money</title>
<path fill="none" stroke="green" d="M404.911,-864.941C389.892,-854.928 370.433,-841.955 354.363,-831.242"/>
<polygon fill="green" stroke="green" points="356.095,-828.19 345.833,-825.555 352.212,-834.014 356.095,-828.19"/>
</g>
<!-- GovBonds -->
<g id="node21" class="node"><title>GovBonds</title>
<ellipse fill="none" stroke="black" cx="480" cy="-810" rx="57.2688" ry="18"/>
<text text-anchor="middle" x="480" y="-806.3" font-family="Times,serif" font-size="14.00">GovBonds</text>
</g>
<!-- PrintsMoney&#45;&gt;GovBonds -->
<g id="edge32" class="edge"><title>PrintsMoney&#45;&gt;GovBonds</title>
<path fill="none" stroke="green" d="M441.346,-864.055C447.485,-855.629 455.025,-845.28 461.81,-835.966"/>
<polygon fill="green" stroke="green" points="464.708,-837.932 467.768,-827.789 459.051,-833.81 464.708,-837.932"/>
</g>
<!-- GovBonds&#45;&gt;Interest -->
<g id="edge34" class="edge"><title>GovBonds&#45;&gt;Interest</title>
<path fill="none" stroke="green" d="M446.038,-795.337C417.659,-783.92 377.104,-767.605 346.935,-755.468"/>
<polygon fill="green" stroke="green" points="348.117,-752.171 337.534,-751.686 345.505,-758.665 348.117,-752.171"/>
</g>
<!-- GovRev -->
<g id="node22" class="node"><title>GovRev</title>
<ellipse fill="none" stroke="black" cx="678" cy="-738" rx="46.2191" ry="18"/>
<text text-anchor="middle" x="678" y="-734.3" font-family="Times,serif" font-size="14.00">GovRev</text>
</g>
<!-- GovBonds&#45;&gt;GovRev -->
<g id="edge33" class="edge"><title>GovBonds&#45;&gt;GovRev</title>
<path fill="none" stroke="green" d="M516.778,-795.998C550.41,-784.107 600.154,-766.521 635.48,-754.032"/>
<polygon fill="green" stroke="green" points="636.774,-757.287 645.036,-750.654 634.441,-750.687 636.774,-757.287"/>
</g>
<!-- GovRev&#45;&gt;GovExp -->
<g id="edge35" class="edge"><title>GovRev&#45;&gt;GovExp</title>
<path fill="none" stroke="green" d="M678.121,-719.871C678.291,-695.67 678.604,-651.211 678.807,-622.393"/>
<polygon fill="green" stroke="green" points="682.308,-622.214 678.879,-612.189 675.309,-622.164 682.308,-622.214"/>
</g>
<!-- HousingPrice -->
<g id="node23" class="node"><title>HousingPrice</title>
<ellipse fill="none" stroke="green" stroke-dasharray="5,2" cx="585" cy="-954" rx="74.1402" ry="18"/>
<text text-anchor="middle" x="585" y="-950.3" font-family="Times,serif" font-size="14.00">HousingPrice</text>
</g>
<!-- HousingPrice&#45;&gt;Investment -->
<g id="edge43" class="edge"><title>HousingPrice&#45;&gt;Investment</title>
<path fill="none" stroke="red" stroke-dasharray="5,2" d="M583.669,-935.529C580.719,-904.82 571.719,-839.887 546,-792 523.911,-750.871 485.022,-712.983 458.41,-689.949"/>
<polygon fill="red" stroke="red" points="460.464,-687.101 450.578,-683.29 455.93,-692.434 460.464,-687.101"/>
</g>
<!-- HousingPrice&#45;&gt;Savings -->
<g id="edge45" class="edge"><title>HousingPrice&#45;&gt;Savings</title>
<path fill="none" stroke="green" stroke-dasharray="5,2" d="M531.082,-941.597C468.092,-928.276 364.734,-906.418 303.641,-893.498"/>
<polygon fill="green" stroke="green" points="304.353,-890.071 293.845,-891.427 302.905,-896.92 304.353,-890.071"/>
</g>
<!-- HousingPrice&#45;&gt;Profit -->
<g id="edge44" class="edge"><title>HousingPrice&#45;&gt;Profit</title>
<path fill="none" stroke="red" stroke-dasharray="5,2" d="M588.845,-935.612C594.397,-908.942 604,-856.268 604,-811 604,-811 604,-811 604,-521 604,-449.398 565.752,-371.688 543.523,-332.571"/>
<polygon fill="red" stroke="red" points="546.296,-330.377 538.25,-323.485 540.242,-333.89 546.296,-330.377"/>
</g>
<!-- HousingPrice&#45;&gt;GovRev -->
<g id="edge46" class="edge"><title>HousingPrice&#45;&gt;GovRev</title>
<path fill="none" stroke="green" stroke-dasharray="5,2" d="M596.91,-935.839C603.63,-925.702 611.88,-912.452 618,-900 640.439,-854.345 659.609,-798.067 669.907,-765.582"/>
<polygon fill="green" stroke="green" points="673.286,-766.503 672.932,-755.914 666.605,-764.413 673.286,-766.503"/>
</g>
</g>
</svg>
