<?xml version="1.0" encoding="UTF-8" standalone="no"?>
<!DOCTYPE svg PUBLIC "-//W3C//DTD SVG 1.1//EN"
 "http://www.w3.org/Graphics/SVG/1.1/DTD/svg11.dtd">
<!-- Generated by graphviz version 2.36.0 (20140111.2315)
 -->
<!-- Title: ecomap Pages: 1 -->
<svg width="935pt" height="1052pt"
 viewBox="0.00 0.00 935.00 1052.00" xmlns="http://www.w3.org/2000/svg" xmlns:xlink="http://www.w3.org/1999/xlink">
<g id="graph0" class="graph" transform="scale(1 1) rotate(0) translate(4 1048)">
<title>ecomap</title>
<polygon fill="white" stroke="none" points="-4,4 -4,-1048 931,-1048 931,4 -4,4"/>
<!-- RealGDP -->
<g id="node1" class="node"><title>RealGDP</title>
<ellipse fill="gold" stroke="gold" cx="158" cy="-18" rx="51.4931" ry="18"/>
<text text-anchor="middle" x="158" y="-14.3" font-family="Times,serif" font-size="14.00">RealGDP</text>
</g>
<!-- Investment -->
<g id="node2" class="node"><title>Investment</title>
<ellipse fill="blue" stroke="blue" cx="398" cy="-666" rx="63.5411" ry="18"/>
<text text-anchor="middle" x="398" y="-662.3" font-family="Times,serif" font-size="14.00" fill="white">Investment</text>
</g>
<!-- Employment -->
<g id="node6" class="node"><title>Employment</title>
<ellipse fill="indigo" stroke="indigo" cx="370" cy="-594" rx="69.3156" ry="18"/>
<text text-anchor="middle" x="370" y="-590.3" font-family="Times,serif" font-size="14.00" fill="white">Employment</text>
</g>
<!-- Investment&#45;&gt;Employment -->
<g id="edge15" class="edge"><title>Investment&#45;&gt;Employment</title>
<path fill="none" stroke="green" d="M391.222,-648.055C388.07,-640.176 384.247,-630.617 380.718,-621.794"/>
<polygon fill="green" stroke="green" points="383.874,-620.26 376.91,-612.275 377.374,-622.86 383.874,-620.26"/>
</g>
<!-- NominalGDP -->
<g id="node11" class="node"><title>NominalGDP</title>
<ellipse fill="none" stroke="black" cx="316" cy="-90" rx="71.2405" ry="18"/>
<text text-anchor="middle" x="316" y="-86.3" font-family="Times,serif" font-size="14.00">NominalGDP</text>
</g>
<!-- Investment&#45;&gt;NominalGDP -->
<g id="edge1" class="edge"><title>Investment&#45;&gt;NominalGDP</title>
<path fill="none" stroke="green" d="M442.666,-653.117C521.25,-629.2 676,-567.333 676,-451 676,-451 676,-451 676,-233 676,-170.58 486.341,-123.963 382.344,-103.093"/>
<polygon fill="green" stroke="green" points="382.739,-99.6032 372.25,-101.094 381.38,-106.47 382.739,-99.6032"/>
</g>
<!-- Supply -->
<g id="node16" class="node"><title>Supply</title>
<ellipse fill="none" stroke="black" cx="386" cy="-306" rx="42.3701" ry="18"/>
<text text-anchor="middle" x="386" y="-302.3" font-family="Times,serif" font-size="14.00">Supply</text>
</g>
<!-- Investment&#45;&gt;Supply -->
<g id="edge16" class="edge"><title>Investment&#45;&gt;Supply</title>
<path fill="none" stroke="green" d="M419.552,-648.885C430.297,-639.468 442.209,-626.578 448,-612 453.907,-597.13 449.808,-591.897 448,-576 437.731,-485.72 408.667,-381.624 394.279,-333.69"/>
<polygon fill="green" stroke="green" points="397.614,-332.627 391.362,-324.073 390.916,-334.659 397.614,-332.627"/>
</g>
<!-- Consume -->
<g id="node3" class="node"><title>Consume</title>
<ellipse fill="blue" stroke="blue" cx="310" cy="-450" rx="53.4184" ry="18"/>
<text text-anchor="middle" x="310" y="-446.3" font-family="Times,serif" font-size="14.00" fill="white">Consume</text>
</g>
<!-- Consume&#45;&gt;NominalGDP -->
<g id="edge2" class="edge"><title>Consume&#45;&gt;NominalGDP</title>
<path fill="none" stroke="green" d="M311.185,-431.961C312.934,-405.315 316,-352.155 316,-307 316,-307 316,-307 316,-233 316,-192.996 316,-146.653 316,-118.08"/>
<polygon fill="green" stroke="green" points="319.5,-118.049 316,-108.049 312.5,-118.049 319.5,-118.049"/>
</g>
<!-- Imports -->
<g id="node12" class="node"><title>Imports</title>
<ellipse fill="none" stroke="black" cx="127" cy="-234" rx="48.1437" ry="18"/>
<text text-anchor="middle" x="127" y="-230.3" font-family="Times,serif" font-size="14.00">Imports</text>
</g>
<!-- Consume&#45;&gt;Imports -->
<g id="edge19" class="edge"><title>Consume&#45;&gt;Imports</title>
<path fill="none" stroke="green" d="M263.119,-441.139C203.28,-428.315 102.118,-396.616 57,-324 48.556,-310.41 49.8772,-302.327 57,-288 64.0022,-273.915 76.7325,-262.574 89.4355,-254.053"/>
<polygon fill="green" stroke="green" points="91.5286,-256.873 98.1548,-248.606 87.8194,-250.936 91.5286,-256.873"/>
</g>
<!-- Exports -->
<g id="node13" class="node"><title>Exports</title>
<ellipse fill="none" stroke="black" cx="241" cy="-234" rx="47.169" ry="18"/>
<text text-anchor="middle" x="241" y="-230.3" font-family="Times,serif" font-size="14.00">Exports</text>
</g>
<!-- Consume&#45;&gt;Exports -->
<g id="edge20" class="edge"><title>Consume&#45;&gt;Exports</title>
<path fill="none" stroke="red" d="M304.754,-432.042C295.635,-402.652 276.187,-340.374 259,-288 256.2,-279.467 253.075,-270.187 250.226,-261.812"/>
<polygon fill="red" stroke="red" points="253.472,-260.487 246.927,-252.156 246.848,-262.75 253.472,-260.487"/>
</g>
<!-- Utilized -->
<g id="node17" class="node"><title>Utilized</title>
<ellipse fill="none" stroke="black" cx="487" cy="-378" rx="46.1964" ry="18"/>
<text text-anchor="middle" x="487" y="-374.3" font-family="Times,serif" font-size="14.00">Utilized</text>
</g>
<!-- Consume&#45;&gt;Utilized -->
<g id="edge17" class="edge"><title>Consume&#45;&gt;Utilized</title>
<path fill="none" stroke="green" d="M343.292,-435.834C372.515,-424.277 415.109,-407.432 446.339,-395.08"/>
<polygon fill="green" stroke="green" points="447.627,-398.335 455.639,-391.402 445.053,-391.825 447.627,-398.335"/>
</g>
<!-- Price -->
<g id="node18" class="node"><title>Price</title>
<ellipse fill="none" stroke="black" cx="465" cy="-234" rx="35.1455" ry="18"/>
<text text-anchor="middle" x="465" y="-230.3" font-family="Times,serif" font-size="14.00">Price</text>
</g>
<!-- Consume&#45;&gt;Price -->
<g id="edge18" class="edge"><title>Consume&#45;&gt;Price</title>
<path fill="none" stroke="green" d="M326.362,-432.498C351.889,-410.689 400.068,-369.654 428,-324 439.912,-304.531 447.193,-279.531 452.834,-260.987"/>
<polygon fill="green" stroke="green" points="456.18,-262.013 455.818,-251.425 449.498,-259.928 456.18,-262.013"/>
</g>
<!-- Savings -->
<g id="node19" class="node"><title>Savings</title>
<ellipse fill="none" stroke="black" cx="246" cy="-882" rx="46.1964" ry="18"/>
<text text-anchor="middle" x="246" y="-878.3" font-family="Times,serif" font-size="14.00">Savings</text>
</g>
<!-- Consume&#45;&gt;Savings -->
<g id="edge21" class="edge"><title>Consume&#45;&gt;Savings</title>
<path fill="none" stroke="red" d="M284.263,-465.881C235.172,-496.413 133,-571.223 133,-665 133,-739 133,-739 133,-739 133,-791.571 181.006,-835.938 214.439,-860.461"/>
<polygon fill="red" stroke="red" points="212.41,-863.313 222.586,-866.261 216.47,-857.61 212.41,-863.313"/>
</g>
<!-- GovernmentSpending -->
<g id="node4" class="node"><title>GovernmentSpending</title>
<ellipse fill="blue" stroke="blue" cx="816" cy="-522" rx="111.186" ry="18"/>
<text text-anchor="middle" x="816" y="-518.3" font-family="Times,serif" font-size="14.00" fill="white">GovernmentSpending</text>
</g>
<!-- GovernmentSpending&#45;&gt;NominalGDP -->
<g id="edge3" class="edge"><title>GovernmentSpending&#45;&gt;NominalGDP</title>
<path fill="none" stroke="green" d="M805.433,-503.786C790.495,-477.765 765,-426.412 765,-379 765,-379 765,-379 765,-233 765,-181.272 735.254,-169.056 690,-144 640.734,-116.722 489.246,-102.191 394.864,-95.58"/>
<polygon fill="green" stroke="green" points="394.998,-92.081 384.782,-94.8887 394.519,-99.0646 394.998,-92.081"/>
</g>
<!-- NetExports -->
<g id="node5" class="node"><title>NetExports</title>
<ellipse fill="blue" stroke="blue" cx="223" cy="-162" rx="64.4914" ry="18"/>
<text text-anchor="middle" x="223" y="-158.3" font-family="Times,serif" font-size="14.00" fill="white">NetExports</text>
</g>
<!-- NetExports&#45;&gt;NominalGDP -->
<g id="edge4" class="edge"><title>NetExports&#45;&gt;NominalGDP</title>
<path fill="none" stroke="green" d="M244.57,-144.765C256.923,-135.467 272.609,-123.66 286.133,-113.481"/>
<polygon fill="green" stroke="green" points="288.34,-116.2 294.225,-107.39 284.13,-110.607 288.34,-116.2"/>
</g>
<!-- Employment&#45;&gt;Consume -->
<g id="edge14" class="edge"><title>Employment&#45;&gt;Consume</title>
<path fill="none" stroke="green" d="M353.792,-576.166C345.197,-566.344 335.169,-553.297 329,-540 319.884,-520.351 315.083,-496.223 312.59,-478.049"/>
<polygon fill="green" stroke="green" points="316.063,-477.615 311.373,-468.115 309.115,-478.466 316.063,-477.615"/>
</g>
<!-- Wages -->
<g id="node15" class="node"><title>Wages</title>
<ellipse fill="none" stroke="black" cx="379" cy="-522" rx="40.4202" ry="18"/>
<text text-anchor="middle" x="379" y="-518.3" font-family="Times,serif" font-size="14.00">Wages</text>
</g>
<!-- Employment&#45;&gt;Wages -->
<g id="edge13" class="edge"><title>Employment&#45;&gt;Wages</title>
<path fill="none" stroke="green" d="M372.225,-575.697C373.217,-567.983 374.408,-558.712 375.514,-550.112"/>
<polygon fill="green" stroke="green" points="378.997,-550.469 376.801,-540.104 372.054,-549.576 378.997,-550.469"/>
</g>
<!-- Money -->
<g id="node7" class="node"><title>Money</title>
<ellipse fill="indigo" stroke="indigo" cx="246" cy="-810" rx="42.3701" ry="18"/>
<text text-anchor="middle" x="246" y="-806.3" font-family="Times,serif" font-size="14.00" fill="white">Money</text>
</g>
<!-- Interest -->
<g id="node9" class="node"><title>Interest</title>
<ellipse fill="cyan" stroke="cyan" cx="238" cy="-738" rx="48.1437" ry="18"/>
<text text-anchor="middle" x="238" y="-734.3" font-family="Times,serif" font-size="14.00">Interest</text>
</g>
<!-- Money&#45;&gt;Interest -->
<g id="edge44" class="edge"><title>Money&#45;&gt;Interest</title>
<path fill="none" stroke="red" d="M244.022,-791.697C243.141,-783.983 242.081,-774.712 241.099,-766.112"/>
<polygon fill="red" stroke="red" points="244.568,-765.642 239.955,-756.104 237.613,-766.437 244.568,-765.642"/>
</g>
<!-- CPI -->
<g id="node8" class="node"><title>CPI</title>
<ellipse fill="cyan" stroke="cyan" cx="208" cy="-1026" rx="28.3955" ry="18"/>
<text text-anchor="middle" x="208" y="-1022.3" font-family="Times,serif" font-size="14.00">CPI</text>
</g>
<!-- CPI&#45;&gt;RealGDP -->
<g id="edge7" class="edge"><title>CPI&#45;&gt;RealGDP</title>
<path fill="none" stroke="red" d="M181.233,-1019.86C125.056,-1007.36 0,-969.792 0,-883 0,-883 0,-883 0,-161 0,-99.0658 67.9888,-57.2829 114.768,-35.8644"/>
<polygon fill="red" stroke="red" points="116.38,-38.9784 124.105,-31.7276 113.544,-32.5784 116.38,-38.9784"/>
</g>
<!-- RealInterest -->
<g id="node14" class="node"><title>RealInterest</title>
<ellipse fill="none" stroke="black" cx="208" cy="-954" rx="68.3417" ry="18"/>
<text text-anchor="middle" x="208" y="-950.3" font-family="Times,serif" font-size="14.00">RealInterest</text>
</g>
<!-- CPI&#45;&gt;RealInterest -->
<g id="edge8" class="edge"><title>CPI&#45;&gt;RealInterest</title>
<path fill="none" stroke="red" d="M208,-1007.7C208,-999.983 208,-990.712 208,-982.112"/>
<polygon fill="red" stroke="red" points="211.5,-982.104 208,-972.104 204.5,-982.104 211.5,-982.104"/>
</g>
<!-- Interest&#45;&gt;Investment -->
<g id="edge11" class="edge"><title>Interest&#45;&gt;Investment</title>
<path fill="none" stroke="red" d="M268.095,-723.834C292.793,-713.028 328.056,-697.601 355.612,-685.545"/>
<polygon fill="red" stroke="red" points="357.248,-688.649 365.007,-681.434 354.443,-682.236 357.248,-688.649"/>
</g>
<!-- Interest&#45;&gt;Consume -->
<g id="edge12" class="edge"><title>Interest&#45;&gt;Consume</title>
<path fill="none" stroke="red" d="M235.689,-719.923C231.065,-680.004 223.84,-578.336 258,-504 263.298,-492.47 272.211,-481.971 281.174,-473.414"/>
<polygon fill="red" stroke="red" points="283.541,-475.992 288.637,-466.704 278.861,-470.787 283.541,-475.992"/>
</g>
<!-- ForeignExchange -->
<g id="node10" class="node"><title>ForeignExchange</title>
<ellipse fill="cyan" stroke="cyan" cx="158" cy="-306" rx="91.9385" ry="18"/>
<text text-anchor="middle" x="158" y="-302.3" font-family="Times,serif" font-size="14.00">ForeignExchange</text>
</g>
<!-- Interest&#45;&gt;ForeignExchange -->
<g id="edge10" class="edge"><title>Interest&#45;&gt;ForeignExchange</title>
<path fill="none" stroke="green" d="M234.745,-719.817C232.783,-709.445 230.24,-695.965 228,-684 203.506,-553.138 174.561,-396.655 163.068,-334.448"/>
<polygon fill="green" stroke="green" points="166.45,-333.487 161.192,-324.289 159.566,-334.758 166.45,-333.487"/>
</g>
<!-- Interest&#45;&gt;RealInterest -->
<g id="edge9" class="edge"><title>Interest&#45;&gt;RealInterest</title>
<path fill="none" stroke="green" d="M220.671,-754.918C211.312,-764.64 200.562,-777.89 195,-792 194.825,-792.445 186.034,-875.991 190,-900 191.441,-908.725 194.132,-917.944 197.002,-926.203"/>
<polygon fill="green" stroke="green" points="193.766,-927.542 200.52,-935.704 200.33,-925.111 193.766,-927.542"/>
</g>
<!-- ForeignExchange&#45;&gt;Imports -->
<g id="edge5" class="edge"><title>ForeignExchange&#45;&gt;Imports</title>
<path fill="none" stroke="green" d="M150.496,-288.055C146.916,-279.973 142.554,-270.121 138.564,-261.112"/>
<polygon fill="green" stroke="green" points="141.685,-259.515 134.435,-251.789 135.284,-262.35 141.685,-259.515"/>
</g>
<!-- ForeignExchange&#45;&gt;Exports -->
<g id="edge6" class="edge"><title>ForeignExchange&#45;&gt;Exports</title>
<path fill="none" stroke="red" d="M177.67,-288.411C188.654,-279.148 202.49,-267.479 214.425,-257.413"/>
<polygon fill="red" stroke="red" points="216.938,-259.871 222.326,-250.749 212.425,-254.52 216.938,-259.871"/>
</g>
<!-- NominalGDP&#45;&gt;RealGDP -->
<g id="edge40" class="edge"><title>NominalGDP&#45;&gt;RealGDP</title>
<path fill="none" stroke="green" d="M282.105,-73.9832C257.393,-63.035 223.826,-48.1636 197.833,-36.6475"/>
<polygon fill="green" stroke="green" points="199.19,-33.4207 188.629,-32.57 196.355,-39.8207 199.19,-33.4207"/>
</g>
<!-- Imports&#45;&gt;NetExports -->
<g id="edge45" class="edge"><title>Imports&#45;&gt;NetExports</title>
<path fill="none" stroke="red" d="M148.306,-217.465C161.42,-207.902 178.432,-195.498 192.907,-184.943"/>
<polygon fill="red" stroke="red" points="195.07,-187.697 201.088,-178.977 190.946,-182.041 195.07,-187.697"/>
</g>
<!-- Exports&#45;&gt;NetExports -->
<g id="edge41" class="edge"><title>Exports&#45;&gt;NetExports</title>
<path fill="none" stroke="green" d="M236.643,-216.055C234.639,-208.261 232.211,-198.822 229.963,-190.079"/>
<polygon fill="green" stroke="green" points="233.322,-189.089 227.442,-180.275 226.543,-190.832 233.322,-189.089"/>
</g>
<!-- RealInterest&#45;&gt;Savings -->
<g id="edge42" class="edge"><title>RealInterest&#45;&gt;Savings</title>
<path fill="none" stroke="green" d="M217.199,-936.055C221.633,-927.887 227.048,-917.912 231.981,-908.824"/>
<polygon fill="green" stroke="green" points="235.191,-910.247 236.886,-899.789 229.039,-906.908 235.191,-910.247"/>
</g>
<!-- Wages&#45;&gt;Consume -->
<g id="edge37" class="edge"><title>Wages&#45;&gt;Consume</title>
<path fill="none" stroke="green" d="M363.343,-505.116C354.471,-496.116 343.201,-484.682 333.308,-474.646"/>
<polygon fill="green" stroke="green" points="335.587,-471.972 326.074,-467.307 330.601,-476.886 335.587,-471.972"/>
</g>
<!-- Supply&#45;&gt;Imports -->
<g id="edge28" class="edge"><title>Supply&#45;&gt;Imports</title>
<path fill="none" stroke="red" d="M350.701,-296.003C310.5,-285.685 242.887,-268.112 185,-252 181.186,-250.938 177.235,-249.82 173.272,-248.685"/>
<polygon fill="red" stroke="red" points="174.044,-245.265 163.465,-245.853 172.102,-251.99 174.044,-245.265"/>
</g>
<!-- Supply&#45;&gt;Exports -->
<g id="edge27" class="edge"><title>Supply&#45;&gt;Exports</title>
<path fill="none" stroke="green" d="M359.066,-291.998C336.408,-281.059 303.764,-265.3 278.542,-253.124"/>
<polygon fill="green" stroke="green" points="279.802,-249.845 269.275,-248.65 276.759,-256.149 279.802,-249.845"/>
</g>
<!-- Supply&#45;&gt;Price -->
<g id="edge29" class="edge"><title>Supply&#45;&gt;Price</title>
<path fill="none" stroke="red" d="M403.533,-289.465C414.421,-279.817 428.575,-267.275 440.556,-256.66"/>
<polygon fill="red" stroke="red" points="442.895,-259.263 448.059,-250.011 438.253,-254.024 442.895,-259.263"/>
</g>
<!-- Utilized&#45;&gt;Investment -->
<g id="edge22" class="edge"><title>Utilized&#45;&gt;Investment</title>
<path fill="none" stroke="green" d="M491.721,-395.931C501.986,-436.402 522.333,-540.682 482,-612 473.565,-626.916 459.021,-638.238 444.381,-646.509"/>
<polygon fill="green" stroke="green" points="442.537,-643.524 435.308,-651.269 445.789,-649.722 442.537,-643.524"/>
</g>
<!-- Utilized&#45;&gt;Supply -->
<g id="edge24" class="edge"><title>Utilized&#45;&gt;Supply</title>
<path fill="none" stroke="green" d="M465.085,-361.811C450.595,-351.769 431.423,-338.482 415.586,-327.505"/>
<polygon fill="green" stroke="green" points="417.393,-324.499 407.181,-321.68 413.406,-330.253 417.393,-324.499"/>
</g>
<!-- Profit -->
<g id="node20" class="node"><title>Profit</title>
<ellipse fill="none" stroke="black" cx="562" cy="-306" rx="36.096" ry="18"/>
<text text-anchor="middle" x="562" y="-302.3" font-family="Times,serif" font-size="14.00">Profit</text>
</g>
<!-- Utilized&#45;&gt;Profit -->
<g id="edge23" class="edge"><title>Utilized&#45;&gt;Profit</title>
<path fill="none" stroke="green" d="M504.019,-361.116C514.132,-351.677 527.112,-339.562 538.226,-329.189"/>
<polygon fill="green" stroke="green" points="540.642,-331.722 545.564,-322.34 535.865,-326.605 540.642,-331.722"/>
</g>
<!-- Price&#45;&gt;Consume -->
<g id="edge26" class="edge"><title>Price&#45;&gt;Consume</title>
<path fill="none" stroke="red" d="M468.779,-252.1C467.548,-270.819 459.948,-301.202 446,-324 419.804,-366.816 375.801,-405.569 344.793,-428.212"/>
<polygon fill="red" stroke="red" points="342.543,-425.517 336.417,-434.161 346.597,-431.223 342.543,-425.517"/>
</g>
<!-- Price&#45;&gt;CPI -->
<g id="edge25" class="edge"><title>Price&#45;&gt;CPI</title>
<path fill="none" stroke="green" d="M498.715,-239.288C530.65,-245.056 577.927,-258.279 607,-288 636.29,-317.943 638,-335.114 638,-377 638,-883 638,-883 638,-883 638,-927.732 627.634,-946.33 591,-972 535.919,-1010.6 332.389,-1021.24 246.567,-1024.05"/>
<polygon fill="green" stroke="green" points="246.349,-1020.55 236.462,-1024.36 246.565,-1027.55 246.349,-1020.55"/>
</g>
<!-- Savings&#45;&gt;Money -->
<g id="edge38" class="edge"><title>Savings&#45;&gt;Money</title>
<path fill="none" stroke="green" d="M246,-863.697C246,-855.983 246,-846.712 246,-838.112"/>
<polygon fill="green" stroke="green" points="249.5,-838.104 246,-828.104 242.5,-838.104 249.5,-838.104"/>
</g>
<!-- Profit&#45;&gt;Employment -->
<g id="edge39" class="edge"><title>Profit&#45;&gt;Employment</title>
<path fill="none" stroke="green" d="M560.442,-324.14C558.249,-342.628 553.188,-372.561 542,-396 507.033,-469.255 437.018,-536.273 397.962,-570.037"/>
<polygon fill="green" stroke="green" points="395.456,-567.574 390.121,-576.728 400,-572.899 395.456,-567.574"/>
</g>
<!-- PrintsMoney -->
<g id="node21" class="node"><title>PrintsMoney</title>
<ellipse fill="none" stroke="black" cx="382" cy="-882" rx="70.2668" ry="18"/>
<text text-anchor="middle" x="382" y="-878.3" font-family="Times,serif" font-size="14.00">PrintsMoney</text>
</g>
<!-- PrintsMoney&#45;&gt;Money -->
<g id="edge30" class="edge"><title>PrintsMoney&#45;&gt;Money</title>
<path fill="none" stroke="green" d="M352.154,-865.638C331.219,-854.862 303.149,-840.415 281.132,-829.083"/>
<polygon fill="green" stroke="green" points="282.598,-825.901 272.105,-824.437 279.395,-832.125 282.598,-825.901"/>
</g>
<!-- GovBonds -->
<g id="node22" class="node"><title>GovBonds</title>
<ellipse fill="none" stroke="black" cx="382" cy="-810" rx="57.2688" ry="18"/>
<text text-anchor="middle" x="382" y="-806.3" font-family="Times,serif" font-size="14.00">GovBonds</text>
</g>
<!-- PrintsMoney&#45;&gt;GovBonds -->
<g id="edge31" class="edge"><title>PrintsMoney&#45;&gt;GovBonds</title>
<path fill="none" stroke="green" d="M382,-863.697C382,-855.983 382,-846.712 382,-838.112"/>
<polygon fill="green" stroke="green" points="385.5,-838.104 382,-828.104 378.5,-838.104 385.5,-838.104"/>
</g>
<!-- GovBonds&#45;&gt;Interest -->
<g id="edge33" class="edge"><title>GovBonds&#45;&gt;Interest</title>
<path fill="none" stroke="green" d="M352.163,-794.496C329.909,-783.678 299.357,-768.826 275.459,-757.209"/>
<polygon fill="green" stroke="green" points="276.853,-753.995 266.329,-752.771 273.792,-760.291 276.853,-753.995"/>
</g>
<!-- GovRev -->
<g id="node23" class="node"><title>GovRev</title>
<ellipse fill="none" stroke="black" cx="526" cy="-666" rx="46.2191" ry="18"/>
<text text-anchor="middle" x="526" y="-662.3" font-family="Times,serif" font-size="14.00">GovRev</text>
</g>
<!-- GovBonds&#45;&gt;GovRev -->
<g id="edge32" class="edge"><title>GovBonds&#45;&gt;GovRev</title>
<path fill="none" stroke="green" d="M398.519,-792.711C424.017,-767.566 473.071,-719.193 502.334,-690.337"/>
<polygon fill="green" stroke="green" points="505.011,-692.613 509.674,-683.099 500.096,-687.629 505.011,-692.613"/>
</g>
<!-- GovRev&#45;&gt;GovernmentSpending -->
<g id="edge43" class="edge"><title>GovRev&#45;&gt;GovernmentSpending</title>
<path fill="none" stroke="green" d="M553.544,-651.513C604.408,-626.607 713.37,-573.253 773.674,-543.725"/>
<polygon fill="green" stroke="green" points="775.476,-546.74 782.918,-539.199 772.398,-540.453 775.476,-546.74"/>
</g>
<!-- Tax -->
<g id="node24" class="node"><title>Tax</title>
<ellipse fill="none" stroke="black" cx="398" cy="-738" rx="27" ry="18"/>
<text text-anchor="middle" x="398" y="-734.3" font-family="Times,serif" font-size="14.00">Tax</text>
</g>
<!-- Tax&#45;&gt;Investment -->
<g id="edge36" class="edge"><title>Tax&#45;&gt;Investment</title>
<path fill="none" stroke="red" d="M398,-719.697C398,-711.983 398,-702.712 398,-694.112"/>
<polygon fill="red" stroke="red" points="401.5,-694.104 398,-684.104 394.5,-694.104 401.5,-694.104"/>
</g>
<!-- Tax&#45;&gt;Consume -->
<g id="edge35" class="edge"><title>Tax&#45;&gt;Consume</title>
<path fill="none" stroke="red" d="M377.557,-725.998C361.58,-716.571 339.69,-701.727 325,-684 302.419,-656.752 298.743,-646.531 291,-612 280.598,-565.613 292.194,-510.35 301.287,-478.117"/>
<polygon fill="red" stroke="red" points="304.765,-478.697 304.24,-468.115 298.052,-476.715 304.765,-478.697"/>
</g>
<!-- Tax&#45;&gt;GovRev -->
<g id="edge34" class="edge"><title>Tax&#45;&gt;GovRev</title>
<path fill="none" stroke="green" d="M418.282,-725.908C437.823,-715.222 467.78,-698.839 491.146,-686.061"/>
<polygon fill="green" stroke="green" points="492.968,-689.054 500.062,-681.185 489.609,-682.912 492.968,-689.054"/>
</g>
<!-- HousingPrice -->
<g id="node25" class="node"><title>HousingPrice</title>
<ellipse fill="none" stroke="green" stroke-dasharray="5,2" cx="508" cy="-954" rx="74.1402" ry="18"/>
<text text-anchor="middle" x="508" y="-950.3" font-family="Times,serif" font-size="14.00">HousingPrice</text>
</g>
<!-- HousingPrice&#45;&gt;Investment -->
<g id="edge46" class="edge"><title>HousingPrice&#45;&gt;Investment</title>
<path fill="none" stroke="red" stroke-dasharray="5,2" d="M504.381,-935.983C495.632,-896.611 471.267,-796.739 434,-720 429.384,-710.494 423.236,-700.745 417.329,-692.242"/>
<polygon fill="red" stroke="red" points="420.011,-689.976 411.335,-683.894 414.325,-694.059 420.011,-689.976"/>
</g>
<!-- HousingPrice&#45;&gt;Savings -->
<g id="edge48" class="edge"><title>HousingPrice&#45;&gt;Savings</title>
<path fill="none" stroke="red" stroke-dasharray="5,2" d="M457.888,-940.746C416.074,-930.368 354.982,-914.85 302,-900 298.414,-898.995 294.706,-897.929 290.986,-896.84"/>
<polygon fill="red" stroke="red" points="291.765,-893.421 281.182,-893.932 289.774,-900.132 291.765,-893.421"/>
</g>
<!-- HousingPrice&#45;&gt;Profit -->
<g id="edge47" class="edge"><title>HousingPrice&#45;&gt;Profit</title>
<path fill="none" stroke="red" stroke-dasharray="5,2" d="M527.963,-936.459C555.021,-912.055 600,-863.581 600,-811 600,-811 600,-811 600,-449 600,-407.406 584.597,-361.217 573.404,-333.143"/>
<polygon fill="red" stroke="red" points="576.546,-331.581 569.508,-323.662 570.072,-334.242 576.546,-331.581"/>
</g>
<!-- HousingPrice&#45;&gt;GovRev -->
<g id="edge49" class="edge"><title>HousingPrice&#45;&gt;GovRev</title>
<path fill="none" stroke="green" stroke-dasharray="5,2" d="M509.072,-935.966C512.073,-888.291 520.576,-753.185 524.261,-694.63"/>
<polygon fill="green" stroke="green" points="527.776,-694.507 524.911,-684.306 520.789,-694.067 527.776,-694.507"/>
</g>
</g>
</svg>
